<svg width="40" height="41" viewBox="0 0 40 41" fill="none" xmlns="http://www.w3.org/2000/svg">
<path d="M39.6853 20.4253C39.6939 25.5068 37.7459 30.3965 34.2453 34.0798C32.6856 35.7255 30.8573 37.0938 28.8388 38.1264C28.3324 38.3858 27.8093 38.6244 27.2737 38.8378C26.8726 39.0013 26.4259 39.0142 26.016 38.8742C25.6061 38.7343 25.2606 38.4508 25.0433 38.0762L24.0683 36.4023C22.9719 34.4983 21.796 32.4436 20.6159 30.389C16.5119 23.2236 12.412 16.0124 11.8338 14.7632C11.8299 14.7547 11.8222 14.751 11.8128 14.751V14.751C11.7986 14.751 11.7875 14.7628 11.7888 14.7769C12.0122 17.1203 12.0039 20.622 12.0039 24.0158V29.0708C12.0039 29.306 11.9576 29.5389 11.8676 29.7562C11.7776 29.9735 11.6457 30.171 11.4793 30.3373C11.313 30.5036 11.1156 30.6355 10.8983 30.7255C10.681 30.8155 10.4481 30.8618 10.2129 30.8618C9.73789 30.8618 9.28233 30.6732 8.94645 30.3373C8.61057 30.0014 8.42188 29.5458 8.42188 29.0708V11.7966C8.42188 11.3216 8.61057 10.866 8.94645 10.5302C9.28233 10.1943 9.73789 10.0056 10.2129 10.0056H12.0416C12.3566 10.0057 12.6661 10.089 12.9386 10.247C13.2112 10.4049 13.4373 10.632 13.5941 10.9053L14.3431 12.2151C16.8539 16.6006 20.6661 23.3253 22.0847 26.0788L22.1057 26.1165C22.243 26.3831 22.357 26.6068 22.4437 26.7914C22.4494 26.8034 22.4615 26.8111 22.4748 26.8111V26.8111C22.4872 26.8111 22.4986 26.8178 22.5046 26.8286L23.9176 29.347L26.3196 33.6279C26.4383 33.8391 26.5987 34.024 26.791 34.1712C26.9834 34.3185 27.2037 34.4251 27.4385 34.4846C27.6734 34.5441 27.9179 34.5552 28.1571 34.5173C28.3964 34.4794 28.6255 34.3932 28.8304 34.264C31.5715 32.4846 33.7227 29.9316 35.0114 26.9283C36.3 23.9251 36.668 20.6069 36.0688 17.3943C35.4695 14.1817 33.93 11.2193 31.6454 8.88253C30.2013 7.4055 28.5006 6.22048 26.6369 5.37886C24.5595 4.44071 22.5909 3.13309 21.4654 1.15087V1.15087V1.15087C21.3347 0.921703 21.512 0.640681 21.7745 0.666821C26.5648 1.1438 31.0276 3.34446 34.3252 6.87077C37.7635 10.5475 39.6791 15.3915 39.6853 20.4253Z" fill="url(#paint0_linear_337_4914)"/>
<path d="M31.2582 11.7967V29.0542C31.2582 29.5292 31.0695 29.9847 30.7337 30.3206C30.3978 30.6565 29.9422 30.8452 29.4672 30.8452H27.6385C27.3235 30.845 27.0141 30.7617 26.7415 30.6038C26.4689 30.4458 26.2428 30.2187 26.086 29.9455L25.337 28.6357C22.831 24.2587 19.0287 17.5515 17.6036 14.788C17.598 14.777 17.5954 14.7655 17.5954 14.7531V14.7531C17.5954 14.7408 17.5924 14.7285 17.5867 14.7175C17.4532 14.4583 17.3422 14.2401 17.2573 14.0594C17.2516 14.0473 17.2395 14.0396 17.2262 14.0396V14.0396C17.2139 14.0396 17.2024 14.033 17.1964 14.0222L15.7834 11.5038L13.3814 7.22287C13.2627 7.01167 13.1024 6.82681 12.91 6.67952C12.7176 6.53224 12.4974 6.42562 12.2625 6.36612C12.0277 6.30663 11.7832 6.29551 11.5439 6.33345C11.3046 6.37139 11.0756 6.45758 10.8706 6.5868C8.1809 8.33292 6.05812 10.8248 4.76174 13.7579C3.46537 16.691 3.05157 19.9383 3.57092 23.1027C4.09027 26.2672 5.52027 29.2119 7.68614 31.5767C9.85201 33.9416 12.6599 35.6243 15.7667 36.4191C15.9926 36.48 16.2041 36.5854 16.3888 36.7291C16.5735 36.8728 16.7276 37.052 16.8421 37.2561L18.2942 39.7668V39.7668C18.4159 39.978 18.2532 40.2384 18.0105 40.2157C13.8778 39.8292 9.96461 38.1565 6.82572 35.4261C3.54331 32.5708 1.28926 28.7166 0.409927 24.4559C-0.469407 20.1952 0.0746255 15.7636 1.95843 11.8421C3.84223 7.92053 6.96158 4.72606 10.8372 2.74948C11.3561 2.48166 11.8875 2.23895 12.4315 2.01717C12.8343 1.85505 13.282 1.84366 13.6925 1.98511C14.103 2.12655 14.4487 2.41132 14.6661 2.78714C14.9897 3.34509 15.3119 3.91002 15.6328 4.48192C16.7835 6.49055 17.9511 8.52847 19.0767 10.5078C23.4815 18.1933 27.3437 25.038 27.8321 26.1007C27.8373 26.1118 27.8472 26.1165 27.8595 26.1165V26.1165C27.8779 26.1165 27.8923 26.1011 27.8906 26.0828C27.6679 23.7395 27.6762 20.2417 27.6762 16.8517V11.7967C27.6762 11.3217 27.8649 10.8661 28.2008 10.5302C28.5366 10.1944 28.9922 10.0057 29.4672 10.0057C29.9422 10.0057 30.3978 10.1944 30.7337 10.5302C31.0695 10.8661 31.2582 11.3217 31.2582 11.7967Z" fill="url(#paint1_linear_337_4914)"/>
<defs>
<linearGradient id="paint0_linear_337_4914" x1="10.9467" y1="10.6925" x2="33.4206" y2="39.8365" gradientUnits="userSpaceOnUse">
<stop stop-color="#F4EF01"/>
<stop offset="1" stop-color="#267210"/>
</linearGradient>
<linearGradient id="paint1_linear_337_4914" x1="2.52437" y1="11.9689" x2="25.0129" y2="41.1128" gradientUnits="userSpaceOnUse">
<stop stop-color="#F4EF01"/>
<stop offset="1" stop-color="#267210"/>
</linearGradient>
</defs>
</svg>
