<svg width="167" height="50" viewBox="0 0 167 50" fill="none" xmlns="http://www.w3.org/2000/svg">
<rect x="115.377" width="11.5377" height="11.5852" rx="3.59993" fill="#EAEA01"/>
<path d="M56.0856 44.4214C53.5216 44.4214 51.5346 43.9299 50.1244 42.9471C48.7569 41.9642 47.7954 40.554 47.2399 38.7165C46.7271 36.8362 46.4707 34.5928 46.4707 31.9861V13.4613H58.0086V30.3195C58.0086 31.9006 58.3077 33.1398 58.906 34.0372C59.547 34.9346 60.4871 35.3833 61.7264 35.3833C62.8802 35.3833 63.9271 34.8919 64.8673 33.909C65.8501 32.9262 66.3415 31.4946 66.3415 29.6144V13.4613H77.8794V33.4603L79.2255 39.8703L77.8794 43.7804H67.0466V40.6395L66.4056 40.319C65.8501 40.8745 65.0382 41.4728 63.9699 42.1138C62.9443 42.7548 61.7477 43.3103 60.3803 43.7804C59.0556 44.2077 57.624 44.4214 56.0856 44.4214Z" fill="white"/>
<path d="M85.4377 43.7804V23.7172L84.0916 17.3073L85.4377 13.4613H94.1552L95.4372 14.9356C95.4372 14.9356 95.7363 14.7647 96.3346 14.4228C96.9328 14.0382 97.7661 13.675 98.8345 13.3331C99.9455 12.9912 101.228 12.8203 102.68 12.8203C103.535 12.8203 104.39 12.8844 105.244 13.0126C106.099 13.1408 106.761 13.3117 107.231 13.5254L111.398 17.0509L107.231 25.2556L98.7704 21.7301L96.8474 22.3711V43.7804H85.4377Z" fill="white"/>
<path d="M115.232 43.7804V22.5634L113.886 17.4355L115.168 13.5254H126.77V43.7804H115.232Z" fill="white"/>
<path d="M133.949 43.7804V24.4864L132.667 17.4355L134.654 13.5254H144.205V16.2817L144.782 16.6663C145.252 16.2389 145.893 15.7475 146.705 15.192C147.559 14.5937 148.585 14.0596 149.782 13.5895C150.978 13.1194 152.324 12.8844 153.82 12.8844C157.666 12.8844 160.55 13.9741 162.473 16.1535C164.396 18.3329 165.358 21.3883 165.358 25.3197V33.4603L166.704 39.8703L165.358 43.7804H153.82V26.9863C153.82 25.3624 153.457 24.1232 152.73 23.2685C152.046 22.3711 150.957 21.9224 149.461 21.9224L145.487 23.1403V43.7804H133.949Z" fill="white"/>
<path d="M39.6853 29.4253C39.6939 34.5068 37.7459 39.3965 34.2453 43.0798C32.6856 44.7255 30.8573 46.0938 28.8388 47.1264C28.3324 47.3858 27.8093 47.6244 27.2737 47.8378C26.8726 48.0013 26.4259 48.0142 26.016 47.8742C25.6061 47.7343 25.2606 47.4508 25.0433 47.0762L24.0683 45.4023C22.9719 43.4983 21.796 41.4436 20.6159 39.389C16.5119 32.2236 12.412 25.0124 11.8338 23.7632C11.8299 23.7547 11.8222 23.751 11.8128 23.751C11.7986 23.751 11.7875 23.7628 11.7888 23.7769C12.0122 26.1203 12.0039 29.622 12.0039 33.0158V38.0708C12.0039 38.306 11.9576 38.5389 11.8676 38.7562C11.7776 38.9735 11.6457 39.171 11.4793 39.3373C11.313 39.5036 11.1156 39.6355 10.8983 39.7255C10.681 39.8155 10.4481 39.8618 10.2129 39.8618C9.73789 39.8618 9.28233 39.6732 8.94645 39.3373C8.61057 39.0014 8.42188 38.5458 8.42188 38.0708V20.7966C8.42188 20.3216 8.61057 19.866 8.94645 19.5302C9.28233 19.1943 9.73789 19.0056 10.2129 19.0056H12.0416C12.3566 19.0057 12.6661 19.089 12.9386 19.247C13.2112 19.4049 13.4373 19.632 13.5941 19.9053L14.3431 21.2151C16.8539 25.6006 20.6661 32.3253 22.0847 35.0788L22.1057 35.1165C22.243 35.3831 22.357 35.6068 22.4437 35.7914C22.4494 35.8034 22.4615 35.8111 22.4748 35.8111C22.4872 35.8111 22.4986 35.8178 22.5046 35.8286L23.9176 38.347L26.3196 42.6279C26.4383 42.8391 26.5987 43.024 26.791 43.1712C26.9834 43.3185 27.2037 43.4251 27.4385 43.4846C27.6734 43.5441 27.9179 43.5552 28.1571 43.5173C28.3964 43.4794 28.6255 43.3932 28.8304 43.264C31.5715 41.4846 33.7227 38.9316 35.0114 35.9283C36.3 32.9251 36.668 29.6069 36.0688 26.3943C35.4695 23.1817 33.93 20.2193 31.6454 17.8825C30.2013 16.4055 28.5006 15.2205 26.6369 14.3789C24.5595 13.4407 22.5909 12.1331 21.4654 10.1509C21.3347 9.9217 21.512 9.64068 21.7745 9.66682C26.5648 10.1438 31.0276 12.3445 34.3252 15.8708C37.7635 19.5475 39.6791 24.3915 39.6853 29.4253Z" fill="url(#paint0_linear_337_4910)"/>
<path d="M31.2582 20.7967V38.0542C31.2582 38.5292 31.0695 38.9847 30.7337 39.3206C30.3978 39.6565 29.9422 39.8452 29.4672 39.8452H27.6385C27.3235 39.845 27.014 39.7617 26.7415 39.6038C26.4689 39.4458 26.2428 39.2187 26.086 38.9455L25.337 37.6357C22.831 33.2587 19.0287 26.5515 17.6036 23.788C17.598 23.777 17.5954 23.7655 17.5954 23.7531C17.5954 23.7408 17.5924 23.7285 17.5867 23.7175C17.4532 23.4583 17.3422 23.2401 17.2573 23.0594C17.2516 23.0473 17.2395 23.0396 17.2262 23.0396C17.2139 23.0396 17.2024 23.033 17.1964 23.0222L15.7834 20.5038L13.3814 16.2229C13.2627 16.0117 13.1024 15.8268 12.91 15.6795C12.7176 15.5322 12.4974 15.4256 12.2625 15.3661C12.0277 15.3066 11.7832 15.2955 11.5439 15.3334C11.3046 15.3714 11.0756 15.4576 10.8706 15.5868C8.1809 17.3329 6.05812 19.8248 4.76174 22.7579C3.46537 25.691 3.05157 28.9383 3.57092 32.1027C4.09027 35.2672 5.52027 38.2119 7.68614 40.5767C9.85201 42.9416 12.6599 44.6243 15.7667 45.4191C15.9926 45.48 16.2041 45.5854 16.3888 45.7291C16.5735 45.8728 16.7276 46.052 16.8421 46.2561L18.2942 48.7668C18.4159 48.978 18.2532 49.2384 18.0105 49.2157C13.8778 48.8292 9.96461 47.1565 6.82572 44.4261C3.54331 41.5708 1.28926 37.7166 0.409927 33.4559C-0.469407 29.1952 0.0746255 24.7636 1.95843 20.8421C3.84223 16.9205 6.96158 13.7261 10.8372 11.7495C11.3561 11.4817 11.8875 11.239 12.4315 11.0172C12.8343 10.855 13.282 10.8437 13.6925 10.9851C14.103 11.1265 14.4487 11.4113 14.6661 11.7871C14.9897 12.3451 15.3119 12.91 15.6328 13.4819C16.7835 15.4906 17.9511 17.5285 19.0767 19.5078C23.4815 27.1933 27.3437 34.038 27.8321 35.1007C27.8373 35.1118 27.8472 35.1165 27.8595 35.1165C27.8779 35.1165 27.8923 35.1011 27.8906 35.0828C27.6679 32.7395 27.6762 29.2417 27.6762 25.8517V20.7967C27.6762 20.3217 27.8649 19.8661 28.2008 19.5302C28.5366 19.1944 28.9922 19.0057 29.4672 19.0057C29.9422 19.0057 30.3978 19.1944 30.7337 19.5302C31.0695 19.8661 31.2582 20.3217 31.2582 20.7967Z" fill="url(#paint1_linear_337_4910)"/>
<defs>
<linearGradient id="paint0_linear_337_4910" x1="10.9467" y1="19.6925" x2="33.4206" y2="48.8365" gradientUnits="userSpaceOnUse">
<stop stop-color="#F4EF01"/>
<stop offset="1" stop-color="#267210"/>
</linearGradient>
<linearGradient id="paint1_linear_337_4910" x1="2.52437" y1="20.9689" x2="25.0129" y2="50.1128" gradientUnits="userSpaceOnUse">
<stop stop-color="#F4EF01"/>
<stop offset="1" stop-color="#267210"/>
</linearGradient>
</defs>
</svg>
