<svg width="80" height="80" viewBox="0 0 80 80" fill="none" xmlns="http://www.w3.org/2000/svg">
<mask id="mask0_644_1012" style="mask-type:luminance" maskUnits="userSpaceOnUse" x="0" y="0" width="80" height="80">
<path d="M0 0H80V80H0V0Z" fill="white"/>
</mask>
<g mask="url(#mask0_644_1012)">
<path d="M37.9476 50.9172C41.651 50.9038 49.7476 50.8738 49.6543 45.7238C49.5643 40.4572 41.7876 40.7738 37.9976 40.9305C37.5743 40.9472 37.1976 40.9638 36.891 40.9672L37.0643 50.9238C37.3143 50.9172 37.6143 50.9172 37.9476 50.9172ZM37.5543 36.4072C40.6443 36.4038 47.3876 36.3972 47.3076 31.7138C47.221 26.9238 40.7443 27.2072 37.581 27.3472C37.2243 27.3638 36.9143 27.3772 36.6543 27.3805L36.811 36.4105L37.5543 36.4072Z" fill="#FFE600"/>
<path fill-rule="evenodd" clip-rule="evenodd" d="M30.3192 78.8041C51.7526 84.1475 73.4593 71.1041 78.8026 49.6775C84.1459 28.2475 71.0993 6.54079 49.6659 1.20079C28.2459 -4.14587 6.53925 8.90079 1.19925 30.3341C-4.14409 51.7608 8.89925 73.4675 30.3226 78.8075L30.3192 78.8041ZM44.5926 22.0708C50.4393 22.4841 55.0926 24.1975 55.7026 29.5441C56.1559 33.4575 54.5559 35.8408 51.9593 37.2208C56.2926 38.1808 59.0426 40.6975 58.6093 46.4575C58.0726 53.6075 52.7826 55.6175 45.1893 56.1841L45.3159 63.6841L40.7959 63.7675L40.6659 56.3675C39.4959 56.3875 38.2959 56.4008 37.0526 56.3941L37.1859 63.8275L32.6659 63.9075L32.5326 56.3941L31.2559 56.4041C30.6092 56.4075 29.9559 56.4108 29.3026 56.4241L23.4159 56.5241L24.2192 51.1108C24.2192 51.1108 27.5659 51.1041 27.5059 51.0541C28.7859 51.0275 29.1092 50.1041 29.1792 49.5241L28.9759 37.6675L29.2992 37.6608H29.4526C29.2933 37.6425 29.1329 37.6347 28.9726 37.6375L28.8259 29.1708C28.6359 28.2575 28.0226 27.2041 26.1926 27.2375C26.2426 27.1708 22.9059 27.2941 22.9059 27.2941L22.8193 22.4675L29.0592 22.3608V22.3841C29.9959 22.3675 30.9592 22.3341 31.9359 22.2975L31.8092 14.8675L36.3293 14.7908L36.4559 22.0708C37.6626 22.0275 38.8759 21.9808 40.0659 21.9608L39.9393 14.7275L44.4626 14.6475L44.5926 22.0775V22.0708Z" fill="#FFE600"/>
</g>
</svg>
