<svg width="80" height="80" viewBox="0 0 80 80" fill="none" xmlns="http://www.w3.org/2000/svg">
<path d="M67.4961 25.0059C70.6689 25.0053 73.7231 26.2113 76.0396 28.3792C78.3561 30.5472 79.7615 33.5149 79.9709 36.6807L80.0009 37.5007V67.5002C80.0014 70.6737 78.7948 73.7287 76.6258 76.0453C74.4568 78.3619 71.4878 79.7668 68.3211 79.975L67.5011 80H37.5016C34.3281 80.0005 31.2732 78.7939 28.9565 76.6249C26.6399 74.4559 25.235 71.4869 25.0268 68.3202L25.0018 67.5002V37.5007C25.0013 34.3271 26.208 31.2722 28.377 28.9556C30.546 26.639 33.5149 25.2341 36.6816 25.0259L37.4966 25.0059H67.4961ZM52.5014 35.0057C51.9163 35.0055 51.3496 35.2106 50.9001 35.5852C50.4506 35.9598 50.1467 36.4801 50.0414 37.0557L50.0014 37.5057V50.0055H37.4966L37.0466 50.0405C36.4702 50.1448 35.9488 50.4483 35.5733 50.8979C35.1978 51.3475 34.9921 51.9147 34.9921 52.5004C34.9921 53.0862 35.1978 53.6534 35.5733 54.103C35.9488 54.5526 36.4702 54.856 37.0466 54.9604L37.4966 55.0004H49.9964V67.5002L50.0364 67.9502C50.1408 68.5266 50.4442 69.048 50.8938 69.4235C51.3434 69.799 51.9106 70.0047 52.4964 70.0047C53.0821 70.0047 53.6493 69.799 54.0989 69.4235C54.5485 69.048 54.852 68.5266 54.9563 67.9502L54.9963 67.5052V55.0054H67.4961L67.9461 54.9654C68.5225 54.861 69.044 54.5576 69.4195 54.108C69.795 53.6584 70.0007 53.0912 70.0007 52.5054C70.0007 51.9197 69.795 51.3525 69.4195 50.9029C69.044 50.4533 68.5225 50.1499 67.9461 50.0455L67.4961 50.0055H54.9963V37.5057L54.9563 37.0557C54.851 36.4801 54.5471 35.9598 54.0976 35.5852C53.6481 35.2106 53.0815 35.0055 52.4964 35.0057H52.5014ZM53.3114 8.47616L53.5514 9.26615L56.4263 20.001H35.0017C31.1757 20.0008 27.4942 21.4626 24.7105 24.0873C21.9268 26.7121 20.2514 30.3013 20.0269 34.1207L20.0019 35.0007V61.7403C17.4478 61.6848 14.972 60.8487 12.9072 59.3443C10.8424 57.84 9.28773 55.7396 8.45209 53.3254L8.19209 52.4754L0.42722 23.5009C-0.395381 20.4358 -0.0212848 17.1725 1.47362 14.373C2.96853 11.5735 5.47232 9.4475 8.47709 8.42616L9.26708 8.19117L38.2416 0.426293C41.1709 -0.358968 44.2859 -0.0524493 47.0059 1.28874C49.726 2.62992 51.8657 4.91429 53.0264 7.71617L53.3114 8.47616Z" fill="#FFE600"/>
</svg>
