<svg width="11" height="9" viewBox="0 0 11 9" fill="none" xmlns="http://www.w3.org/2000/svg">
<path d="M4.44488 6.08344L7.18405 4.50011L4.44488 2.91678V6.08344ZM10.546 1.95094C10.6146 2.199 10.6621 2.5315 10.6938 2.95372C10.7307 3.37594 10.7465 3.74011 10.7465 4.05678L10.7782 4.50011C10.7782 5.65594 10.6938 6.50566 10.546 7.04928C10.414 7.52428 10.1079 7.83039 9.63293 7.96233C9.38488 8.03094 8.93099 8.07844 8.23432 8.11011C7.54821 8.14705 6.92016 8.16289 6.3396 8.16289L5.50043 8.19455C3.28904 8.19455 1.91155 8.11011 1.36793 7.96233C0.892934 7.83039 0.586823 7.52428 0.454879 7.04928C0.386267 6.80122 0.338767 6.46872 0.307101 6.0465C0.270156 5.62428 0.254323 5.26011 0.254323 4.94344L0.222656 4.50011C0.222656 3.34428 0.307101 2.49455 0.454879 1.95094C0.586823 1.47594 0.892934 1.16983 1.36793 1.03789C1.61599 0.969275 2.06988 0.921775 2.76655 0.890108C3.45266 0.853164 4.08071 0.837331 4.66127 0.837331L5.50043 0.805664C7.71182 0.805664 9.08932 0.890109 9.63293 1.03789C10.1079 1.16983 10.414 1.47594 10.546 1.95094Z" fill="#E8EAEC"/>
</svg>
