<svg width="11" height="11" viewBox="0 0 11 11" fill="none" xmlns="http://www.w3.org/2000/svg">
<path d="M7.18932 5.49946C7.18932 5.83349 7.09027 6.16002 6.90469 6.43775C6.71912 6.71549 6.45535 6.93196 6.14674 7.05979C5.83814 7.18762 5.49856 7.22106 5.17095 7.1559C4.84334 7.09073 4.5424 6.92988 4.30621 6.69368C4.07001 6.45749 3.90916 6.15656 3.844 5.82894C3.77883 5.50133 3.81228 5.16175 3.9401 4.85315C4.06793 4.54454 4.2844 4.28078 4.56214 4.0952C4.83987 3.90962 5.1664 3.81057 5.50043 3.81057C5.94793 3.81196 6.37669 3.99034 6.69312 4.30677C7.00955 4.6232 7.18793 5.05196 7.18932 5.49946ZM10.7782 3.17724V7.82168C10.7782 8.60554 10.4668 9.3573 9.91255 9.91157C9.35828 10.4658 8.60652 10.7772 7.82266 10.7772H3.17821C2.39435 10.7772 1.64259 10.4658 1.08832 9.91157C0.534044 9.3573 0.222656 8.60554 0.222656 7.82168V3.17724C0.222656 2.39337 0.534044 1.64162 1.08832 1.08734C1.64259 0.533068 2.39435 0.22168 3.17821 0.22168H7.82266C8.60652 0.22168 9.35828 0.533068 9.91255 1.08734C10.4668 1.64162 10.7782 2.39337 10.7782 3.17724ZM8.03377 5.49946C8.03377 4.99841 7.88519 4.50862 7.60682 4.09201C7.32846 3.67541 6.93281 3.3507 6.4699 3.15896C6.00699 2.96722 5.49762 2.91705 5.00621 3.0148C4.51479 3.11255 4.06339 3.35383 3.7091 3.70812C3.3548 4.06241 3.11353 4.51381 3.01578 5.00523C2.91803 5.49665 2.9682 6.00602 3.15994 6.46892C3.35168 6.93183 3.67638 7.32748 4.09299 7.60585C4.50959 7.88421 4.99939 8.03279 5.50043 8.03279C6.17232 8.03279 6.81668 7.76589 7.29177 7.29079C7.76686 6.8157 8.03377 6.17134 8.03377 5.49946ZM8.87821 2.75501C8.87821 2.62975 8.84107 2.5073 8.77148 2.40315C8.70188 2.299 8.60297 2.21782 8.48724 2.16989C8.37152 2.12195 8.24418 2.10941 8.12132 2.13385C7.99847 2.15829 7.88562 2.21861 7.79704 2.30718C7.70847 2.39575 7.64815 2.5086 7.62371 2.63146C7.59928 2.75431 7.61182 2.88165 7.65976 2.99738C7.70769 3.11311 7.78887 3.21202 7.89302 3.28161C7.99717 3.3512 8.11962 3.38835 8.24488 3.38835C8.41285 3.38835 8.57394 3.32162 8.69271 3.20285C8.81149 3.08407 8.87821 2.92298 8.87821 2.75501Z" fill="#E8EAEC"/>
</svg>
