<svg width="42" height="42" viewBox="0 0 42 42" fill="none" xmlns="http://www.w3.org/2000/svg">
<circle cx="21.1271" cy="21.0021" r="20.8732" fill="#FFE600"/>
<path d="M16.9749 11.1152H25.2802C28.4442 11.1152 31.0149 13.6859 31.0149 16.8499V25.1552C31.0149 26.6762 30.4107 28.1348 29.3352 29.2102C28.2598 30.2857 26.8012 30.8899 25.2802 30.8899H16.9749C13.8109 30.8899 11.2402 28.3192 11.2402 25.1552V16.8499C11.2402 15.329 11.8444 13.8703 12.9199 12.7949C13.9953 11.7194 15.454 11.1152 16.9749 11.1152ZM16.7771 13.0927C15.8331 13.0927 14.9278 13.4677 14.2602 14.1352C13.5927 14.8028 13.2177 15.7081 13.2177 16.6521V25.353C13.2177 27.3206 14.8096 28.9124 16.7771 28.9124H25.478C26.422 28.9124 27.3274 28.5374 27.9949 27.8699C28.6624 27.2024 29.0374 26.297 29.0374 25.353V16.6521C29.0374 14.6846 27.4456 13.0927 25.478 13.0927H16.7771ZM26.3184 14.5758C26.6462 14.5758 26.9606 14.706 27.1923 14.9378C27.4241 15.1696 27.5543 15.4839 27.5543 15.8117C27.5543 16.1395 27.4241 16.4539 27.1923 16.6856C26.9606 16.9174 26.6462 17.0476 26.3184 17.0476C25.9906 17.0476 25.6763 16.9174 25.4445 16.6856C25.2127 16.4539 25.0825 16.1395 25.0825 15.8117C25.0825 15.4839 25.2127 15.1696 25.4445 14.9378C25.6763 14.706 25.9906 14.5758 26.3184 14.5758ZM21.1276 16.0589C22.4387 16.0589 23.6961 16.5797 24.6233 17.5069C25.5504 18.434 26.0712 19.6914 26.0712 21.0026C26.0712 22.3137 25.5504 23.5711 24.6233 24.4983C23.6961 25.4254 22.4387 25.9462 21.1276 25.9462C19.8164 25.9462 18.559 25.4254 17.6319 24.4983C16.7047 23.5711 16.1839 22.3137 16.1839 21.0026C16.1839 19.6914 16.7047 18.434 17.6319 17.5069C18.559 16.5797 19.8164 16.0589 21.1276 16.0589ZM21.1276 18.0364C20.3409 18.0364 19.5864 18.3489 19.0301 18.9051C18.4739 19.4614 18.1614 20.2159 18.1614 21.0026C18.1614 21.7892 18.4739 22.5437 19.0301 23.1C19.5864 23.6562 20.3409 23.9688 21.1276 23.9688C21.9142 23.9688 22.6687 23.6562 23.225 23.1C23.7812 22.5437 24.0938 21.7892 24.0938 21.0026C24.0938 20.2159 23.7812 19.4614 23.225 18.9051C22.6687 18.3489 21.9142 18.0364 21.1276 18.0364Z" fill="#1F1F1F"/>
</svg>
