<svg width="80" height="80" viewBox="0 0 80 80" fill="none" xmlns="http://www.w3.org/2000/svg">
<path d="M68 80H12C8.8174 80 5.76516 78.7357 3.51472 76.4853C1.26428 74.2348 0 71.1826 0 68V4C0 2.93913 0.421427 1.92172 1.17157 1.17157C1.92172 0.421427 2.93913 0 4 0H60C61.0609 0 62.0783 0.421427 62.8284 1.17157C63.5786 1.92172 64 2.93913 64 4V52H80V68C80 71.1826 78.7357 74.2348 76.4853 76.4853C74.2348 78.7357 71.1826 80 68 80ZM64 60V68C64 69.0609 64.4214 70.0783 65.1716 70.8284C65.9217 71.5786 66.9391 72 68 72C69.0609 72 70.0783 71.5786 70.8284 70.8284C71.5786 70.0783 72 69.0609 72 68V60H64ZM16 20V28H48V20H16ZM16 36V44H48V36H16ZM16 52V60H36V52H16Z" fill="#FFE600"/>
</svg>
