<svg width="13" height="10" viewBox="0 0 13 10" fill="none" xmlns="http://www.w3.org/2000/svg">
<path d="M12.0216 1.33388C11.6152 1.5186 11.1771 1.63999 10.7232 1.69804C11.1877 1.41832 11.5466 0.974987 11.7155 0.441931C11.2774 0.70582 10.7919 0.890543 10.2799 0.996098C9.86297 0.542209 9.27714 0.27832 8.61214 0.27832C7.37186 0.27832 6.35852 1.29165 6.35852 2.54249C6.35852 2.72193 6.37964 2.8961 6.41658 3.05971C4.53769 2.96471 2.86464 2.06221 1.75102 0.695265C1.55575 1.02776 1.44491 1.41832 1.44491 1.82999C1.44491 2.61638 1.84075 3.31304 2.45297 3.70888C2.07825 3.70888 1.72991 3.60332 1.4238 3.44499V3.46082C1.4238 4.5586 2.20491 5.47693 3.23936 5.68276C2.90724 5.77365 2.55857 5.7863 2.22075 5.71971C2.36409 6.16963 2.64484 6.56331 3.02351 6.84542C3.40218 7.12753 3.85973 7.28388 4.33186 7.29249C3.53155 7.92605 2.53952 8.26852 1.5188 8.2636C1.33936 8.2636 1.15991 8.25304 0.980469 8.23193C1.98325 8.87582 3.17602 9.25054 4.45325 9.25054C8.61214 9.25054 10.8974 5.79888 10.8974 2.80638C10.8974 2.7061 10.8974 2.6111 10.8921 2.51082C11.3355 2.19415 11.7155 1.79304 12.0216 1.33388Z" fill="#E8EAEC"/>
</svg>
